subject_01
version=1
nRows=401
nColumns=3
inDegrees=yes
endheader
time	r_shoulder_elev	r_elbow_flex
0.0000	10.112413	22.597617
0.0100	10.112413	22.597726
0.0200	10.112413	22.599190
0.0300	10.112413	22.603123
0.0400	10.112413	22.610532
0.0500	10.112413	22.622324
0.0600	10.112413	22.639345
0.0700	10.112413	22.662416
0.0800	10.112413	22.692388
0.0900	10.112413	22.730171
0.1000	10.112413	22.776746
0.1100	10.112413	22.833147
0.1200	10.112413	22.900416
0.1300	10.112413	22.979526
0.1400	10.112413	23.071322
0.1500	10.112413	23.176464
0.1600	10.112413	23.295413
0.1700	10.112413	23.428469
0.1800	10.112413	23.575839
0.1900	10.112413	23.737740
0.2000	10.112413	23.914496
0.2100	10.112413	24.106601
0.2200	10.112413	24.314730
0.2300	10.112413	24.539686
0.2400	10.112413	24.782294
0.2500	10.112413	25.043276
0.2600	10.112413	25.323124
0.2700	10.112413	25.622042
0.2800	10.112413	25.939954
0.2900	10.112413	26.276587
0.3000	10.112413	26.631626
0.3100	10.112413	27.004878
0.3200	10.112413	27.396410
0.3300	10.112413	27.806603
0.3400	10.112413	28.236112
0.3500	10.112413	28.685726
0.3600	10.112413	29.156164
0.3700	10.112413	29.647863
0.3800	10.112413	30.160829
0.3900	10.112413	30.694593
0.4000	10.112413	31.248300
0.4100	10.112413	31.820915
0.4200	10.112413	32.411496
0.4300	10.112413	33.019454
0.4400	10.112413	33.644732
0.4500	10.112413	34.287828
0.4600	10.112413	34.949661
0.4700	10.112413	35.631303
0.4800	10.112413	36.333630
0.4900	10.112413	37.057014
0.5000	10.112413	37.801120
0.5100	10.112413	38.564895
0.5200	10.112413	39.346740
0.5300	10.112413	40.144847
0.5400	10.112413	40.957603
0.5500	10.112413	41.783949
0.5600	10.112413	42.623607
0.5700	10.112413	43.477090
0.5800	10.112413	44.345494
0.5900	10.112413	45.230130
0.6000	10.112413	46.132076
0.6100	10.112413	47.051786
0.6200	10.112413	47.988858
0.6300	10.112413	48.942021
0.6400	10.112413	49.909354
0.6500	10.112413	50.888674
0.6600	10.112413	51.877987
0.6700	10.112413	52.875876
0.6800	10.112413	53.881729
0.6900	10.112413	54.895743
0.7000	10.112413	55.918700
0.7100	10.112413	56.951608
0.7200	10.112413	57.995277
0.7300	10.112413	59.049982
0.7400	10.112413	60.115284
0.7500	10.112413	61.190065
0.7600	10.112413	62.272745
0.7700	10.112413	63.361626
0.7800	10.112413	64.455241
0.7900	10.112413	65.552605
0.8000	10.112413	66.653303
0.8100	10.112413	67.757393
0.8200	10.112413	68.865152
0.8300	10.112413	69.976758
0.8400	10.112413	71.092022
0.8500	10.112413	72.210227
0.8600	10.112413	73.330163
0.8700	10.112413	74.450319
0.8800	10.112413	75.569186
0.8900	10.112413	76.685571
0.9000	10.112413	77.798825
0.9100	10.112413	78.908904
0.9200	10.112413	80.016250
0.9300	10.112413	81.121511
0.9400	10.112413	82.225199
0.9500	10.112413	83.327374
0.9600	10.112413	84.427461
0.9700	10.112413	85.524248
0.9800	10.112413	86.616070
0.9900	10.112413	87.701117
1.0000	10.112413	88.777783
1.0100	10.112413	89.844932
1.0200	10.112413	90.902025
1.0300	10.112413	91.949049
1.0400	10.112413	92.986301
1.0500	10.112413	94.014082
1.0600	10.112413	95.032414
1.0700	10.112413	96.040872
1.0800	10.112413	97.038592
1.0900	10.112413	98.024453
1.1000	10.112413	98.997368
1.1100	10.112413	99.956589
1.1200	10.112413	100.901920
1.1300	10.112413	101.833741
1.1400	10.112413	102.752830
1.1500	10.112413	103.660009
1.1600	10.112413	104.555721
1.1700	10.112413	105.439665
1.1800	10.112413	106.310612
1.1900	10.112413	107.166483
1.2000	10.112413	108.004684
1.2100	10.112413	108.822641
1.2200	10.112413	109.618385
1.2300	10.112413	110.391033
1.2400	10.112413	111.141027
1.2500	10.112413	111.870049
1.2600	10.112413	112.580616
1.2700	10.112413	113.275458
1.2800	10.112413	113.956814
1.2900	10.112413	114.625856
1.3000	10.112413	115.282359
1.3100	10.112413	115.924720
1.3200	10.112413	116.550314
1.3300	10.112413	117.156089
1.3400	10.112413	117.739249
1.3500	10.112413	118.297845
1.3600	10.112413	118.831137
1.3700	10.112413	119.339645
1.3800	10.112413	119.824898
1.3900	10.112413	120.288974
1.4000	10.112413	120.733954
1.4100	10.112413	121.161460
1.4200	10.112413	121.572365
1.4300	10.112413	121.966755
1.4400	10.112413	122.344107
1.4500	10.112413	122.703603
1.4600	10.112413	123.044482
1.4700	10.112413	123.366299
1.4800	10.112413	123.669041
1.4900	10.112413	123.953070
1.5000	10.112413	124.218946
1.5100	10.112413	124.467198
1.5200	10.112413	124.698157
1.5300	10.112413	124.911890
1.5400	10.112413	125.108288
1.5500	10.112413	125.287258
1.5600	10.112413	125.448958
1.5700	10.112413	125.593980
1.5800	10.112413	125.723410
1.5900	10.112413	125.838726
1.6000	10.112413	125.941560
1.6100	10.112413	126.033387
1.6200	10.112413	126.115239
1.6300	10.112413	126.187550
1.6400	10.112413	126.250187
1.6500	10.112413	126.302668
1.6600	10.112413	126.344535
1.6700	10.112413	126.375744
1.6800	10.112413	126.396983
1.6900	10.112413	126.409801
1.7000	10.112413	126.416494
1.7100	10.112413	126.419778
1.7200	10.112413	126.422315
1.7300	10.112413	126.426231
1.7400	10.112413	126.432759
1.7500	10.112413	126.441971
1.7600	10.112413	126.452288
1.7700	10.112413	126.461354
1.7800	10.112413	126.466867
1.7900	10.112413	126.467147
1.8000	10.112413	126.461582
1.8100	10.112413	126.450825
1.8200	10.112413	126.436704
1.8300	10.112413	126.421863
1.8400	10.112413	126.409211
1.8500	10.112413	126.401325
1.8600	10.112413	126.399919
1.8700	10.112413	126.405507
1.8800	10.112413	126.417312
1.8900	10.112413	126.433424
1.9000	10.112413	126.451161
1.9100	10.112413	126.467550
1.9200	10.112413	126.479832
1.9300	10.112413	126.485914
1.9400	10.112413	126.484688
1.9500	10.112413	126.476036
1.9600	10.112413	126.460339
1.9700	10.112413	126.438835
1.9800	10.112413	126.413475
1.9900	10.112413	126.386515
2.0000	10.112413	126.360033
2.0100	10.112413	126.335440
2.0200	10.112413	126.313054
2.0300	10.112413	126.291813
2.0400	10.112413	126.269218
2.0500	10.112413	126.241535
2.0600	10.112413	126.204271
2.0700	10.112413	126.152864
2.0800	10.112413	126.083461
2.0900	10.112413	125.993628
2.1000	10.112413	125.882821
2.1100	10.112413	125.752480
2.1200	10.112413	125.605682
2.1300	10.112413	125.446404
2.1400	10.112413	125.278545
2.1500	10.112413	125.104922
2.1600	10.112413	124.926488
2.1700	10.112413	124.741992
2.1800	10.112413	124.548178
2.1900	10.112413	124.340500
2.2000	10.112413	124.114180
2.2100	10.112413	123.865356
2.2200	10.112413	123.592003
2.2300	10.112413	123.294384
2.2400	10.112413	122.974889
2.2500	10.112413	122.637298
2.2600	10.112413	122.285658
2.2700	10.112413	121.923071
2.2800	10.112413	121.550746
2.2900	10.112413	121.167584
2.3000	10.112413	120.770422
2.3100	10.112413	120.354907
2.3200	10.112413	119.916742
2.3300	10.112413	119.452968
2.3400	10.112413	118.962907
2.3500	10.112413	118.448481
2.3600	10.112413	117.913781
2.3700	10.112413	117.363989
2.3800	10.112413	116.803933
2.3900	10.112413	116.236677
2.4000	10.112413	115.662557
2.4100	10.112413	115.078959
2.4200	10.112413	114.480930
2.4300	10.112413	113.862486
2.4400	10.112413	113.218274
2.4500	10.112413	112.545137
2.4600	10.112413	111.843130
2.4700	10.112413	111.115689
2.4800	10.112413	110.368881
2.4900	10.112413	109.609907
2.5000	10.112413	108.845252
2.5100	10.112413	108.078990
2.5200	10.112413	107.311692
2.5300	10.112413	106.540277
2.5400	10.112413	105.758826
2.5500	10.112413	104.960195
2.5600	10.112413	104.137953
2.5700	10.112413	103.288172
2.5800	10.112413	102.410545
2.5900	10.112413	101.508563
2.6000	10.112413	100.588686
2.6100	10.112413	99.658741
2.6200	10.112413	98.725990
2.6300	10.112413	97.795370
2.6400	10.112413	96.868389
2.6500	10.112413	95.942941
2.6600	10.112413	95.014086
2.6700	10.112413	94.075529
2.6800	10.112413	93.121407
2.6900	10.112413	92.147870
2.7000	10.112413	91.154056
2.7100	10.112413	90.142214
2.7200	10.112413	89.116989
2.7300	10.112413	88.084114
2.7400	10.112413	87.048907
2.7500	10.112413	86.014999
2.7600	10.112413	84.983644
2.7700	10.112413	83.953767
2.7800	10.112413	82.922694
2.7900	10.112413	81.887286
2.8000	10.112413	80.845136
2.8100	10.112413	79.795441
2.8200	10.112413	78.739299
2.8300	10.112413	77.679380
2.8400	10.112413	76.619075
2.8500	10.112413	75.561438
2.8600	10.112413	74.508239
2.8700	10.112413	73.459460
2.8800	10.112413	72.413365
2.8900	10.112413	71.367147
2.9000	10.112413	70.317932
2.9100	10.112413	69.263839
2.9200	10.112413	68.204757
2.9300	10.112413	67.142613
2.9400	10.112413	66.081024
2.9500	10.112413	65.024460
2.9600	10.112413	63.977154
2.9700	10.112413	62.942088
2.9800	10.112413	61.920361
2.9900	10.112413	60.911102
3.0000	10.112413	59.911958
3.0100	10.112413	58.919971
3.0200	10.112413	57.932584
3.0300	10.112413	56.948448
3.0400	10.112413	55.967798
3.0500	10.112413	54.992287
3.0600	10.112413	54.024369
3.0700	10.112413	53.066431
3.0800	10.112413	52.119997
3.0900	10.112413	51.185265
3.1000	10.112413	50.261158
3.1100	10.112413	49.345882
3.1200	10.112413	48.437821
3.1300	10.112413	47.536475
3.1400	10.112413	46.643115
3.1500	10.112413	45.760898
3.1600	10.112413	44.894352
3.1700	10.112413	44.048329
3.1800	10.112413	43.226699
3.1900	10.112413	42.431163
3.2000	10.112413	41.660548
3.2100	10.112413	40.910837
3.2200	10.112413	40.175977
3.2300	10.112413	39.449303
3.2400	10.112413	38.725221
3.2500	10.112413	38.000703
3.2600	10.112413	37.276210
3.2700	10.112413	36.555759
3.2800	10.112413	35.846113
3.2900	10.112413	35.155289
3.3000	10.112413	34.490749
3.3100	10.112413	33.857744
3.3200	10.112413	33.258226
3.3300	10.112413	32.690565
3.3400	10.112413	32.150140
3.3500	10.112413	31.630592
3.3600	10.112413	31.125413
3.3700	10.112413	30.629428
3.3800	10.112413	30.139833
3.3900	10.112413	29.656547
3.4000	10.112413	29.181853
3.4100	10.112413	28.719513
3.4200	10.112413	28.273629
3.4300	10.112413	27.847596
3.4400	10.112413	27.443416
3.4500	10.112413	27.061513
3.4600	10.112413	26.701024
3.4700	10.112413	26.360407
3.4800	10.112413	26.038124
3.4900	10.112413	25.733154
3.5000	10.112413	25.445199
3.5100	10.112413	25.174518
3.5200	10.112413	24.921519
3.5300	10.112413	24.686259
3.5400	10.112413	24.468088
3.5500	10.112413	24.265557
3.5600	10.112413	24.076670
3.5700	10.112413	23.899390
3.5800	10.112413	23.732228
3.5900	10.112413	23.574722
3.6000	10.112413	23.427598
3.6100	10.112413	23.292552
3.6200	10.112413	23.171677
3.6300	10.112413	23.066699
3.6400	10.112413	22.978253
3.6500	10.112413	22.905440
3.6600	10.112413	22.845815
3.6700	10.112413	22.795847
3.6800	10.112413	22.751740
3.6900	10.112413	22.710389
3.7000	10.112413	22.670192
3.7100	10.112413	22.631467
3.7200	10.112413	22.596337
3.7300	10.112413	22.568065
3.7400	10.112413	22.550027
3.7500	10.112413	22.544568
3.7600	10.112413	22.552049
3.7700	10.112413	22.570369
3.7800	10.112413	22.595078
3.7900	10.112413	22.620250
3.8000	10.112413	22.640127
3.8100	10.112413	22.649912
3.8200	10.112413	22.646721
3.8300	10.112413	22.630271
3.8400	10.112413	22.602999
3.8500	10.112413	22.569581
3.8600	10.112413	22.536002
3.8700	10.112413	22.508366
3.8800	10.112413	22.491736
3.8900	10.112413	22.489208
3.9000	10.112413	22.501404
3.9100	10.112413	22.526416
3.9200	10.112413	22.560190
3.9300	10.112413	22.597237
3.9400	10.112413	22.631528
3.9500	10.112413	22.657432
3.9600	10.112413	22.670575
3.9700	10.112413	22.668513
3.9800	10.112413	22.651148
3.9900	10.112413	22.621001
4.0000	10.112413	22.583495
